<svg width="1280" height="720" xmlns="http://www.w3.org/2000/svg" xmlns:xlink="http://www.w3.org/1999/xlink" overflow="hidden"><defs><clipPath id="clip0"><rect x="0" y="0" width="1280" height="720"/></clipPath><clipPath id="clip1"><rect x="1168" y="0" width="112" height="107"/></clipPath><clipPath id="clip2"><rect x="1168" y="-1" width="112" height="108"/></clipPath><clipPath id="clip3"><rect x="1168" y="-1" width="112" height="108"/></clipPath><clipPath id="clip4"><rect x="1168" y="0" width="112" height="107"/></clipPath><clipPath id="clip5"><rect x="1168" y="-1" width="112" height="108"/></clipPath><clipPath id="clip6"><rect x="1168" y="-1" width="112" height="108"/></clipPath></defs><g clip-path="url(#clip0)"><rect x="0" y="0" width="1280" height="720" fill="#FFFFFF"/><path d="M63 718.91 1279 718.91 1279 0 63 0 63 718.91Z" fill="#FAFAFA" fill-rule="evenodd"/><path d="M0 502.953 62.9827 502.953 62.9827-1 0-1 0 502.953Z" fill="#33485E" fill-rule="evenodd"/><path d="M0 718.987 62.9827 718.987 62.9827 718 0 718 0 718.987Z" fill="#33485E" fill-rule="evenodd"/><path d="M0 719.964 62.9827 719.964 62.9827 503 0 503 0 719.964Z" fill="#2C3E50" fill-rule="evenodd"/><g clip-path="url(#clip1)"><g clip-path="url(#clip2)"><g clip-path="url(#clip3)"><path d="M26.9998 111.856 26.9998 79.5968 33.0192 73.4605" stroke="#8FAADC" stroke-width="0.50733" fill="none" transform="matrix(-1.83697e-16 -1 1.00128 -1.83933e-16 1168 105.831)"/><path d="M32.6102 72.2917C32.6102 71.3566 33.3699 70.5969 34.305 70.5969 35.24 70.5969 35.9413 71.3566 35.9413 72.2917 35.9413 73.2268 35.24 73.928 34.305 73.928 33.3699 73.928 32.6102 73.2268 32.6102 72.2917Z" stroke="#8FAADC" stroke-width="0.50733" fill="none" transform="matrix(-1.83697e-16 -1 1.00128 -1.83933e-16 1168 105.831)"/><path d="M29.6881 111.798 29.6881 83.1618 38.9802 73.4021 39.1556 53.8243" stroke="#8FAADC" stroke-width="0.50733" fill="none" transform="matrix(-1.83697e-16 -1 1.00128 -1.83933e-16 1168 105.831)"/><path d="M36.7595 51.8373C36.7595 50.4931 37.8114 49.4412 39.1556 49.4412 40.4413 49.4412 41.5517 50.4931 41.5517 51.8373 41.5517 53.123 40.4413 54.1749 39.1556 54.1749 37.8114 54.1749 36.7595 53.123 36.7595 51.8373Z" stroke="#8FAADC" stroke-width="0.50733" fill="none" transform="matrix(-1.83697e-16 -1 1.00128 -1.83933e-16 1168 105.831)"/><path d="M33.0777 111.856 33.0777 89.7072 44.8244 77.5514 44.8828 52.0126 33.1361 39.8569 33.1361 19.87" stroke="#8FAADC" stroke-width="0.50733" fill="none" transform="matrix(-1.83697e-16 -1 1.00128 -1.83933e-16 1168 105.831)"/><path d="M31.3829 18.4674C31.3829 17.5323 32.1426 16.7726 33.0777 16.7726 34.0127 16.7726 34.714 17.5323 34.714 18.4674 34.714 19.4025 34.0127 20.1038 33.0777 20.1038 32.1426 20.1038 31.3829 19.4025 31.3829 18.4674Z" stroke="#8FAADC" stroke-width="0.50733" fill="none" transform="matrix(-1.83697e-16 -1 1.00128 -1.83933e-16 1168 105.831)"/><path d="M39.6231 111.856 39.3893 94.2071 47.7464 85.4994 47.9802 4.20776" stroke="#8FAADC" stroke-width="0.50733" fill="none" transform="matrix(-1.83697e-16 -1 1.00128 -1.83933e-16 1168 105.831)"/><path d="M50.5516 20.8635C50.5516 19.9284 51.3113 19.1687 52.2464 19.1687 53.1814 19.1687 53.8827 19.9284 53.8827 20.8635 53.8827 21.7985 53.1814 22.4998 52.2464 22.4998 51.3113 22.4998 50.5516 21.7985 50.5516 20.8635Z" stroke="#8FAADC" stroke-width="0.50733" fill="none" transform="matrix(-1.83697e-16 -1 1.00128 -1.83933e-16 1168 105.831)"/><path d="M48.0971 55.3438 52.3048 51.1944 52.3048 22.1492" stroke="#8FAADC" stroke-width="0.50733" fill="none" transform="matrix(-1.83697e-16 -1 1.00128 -1.83933e-16 1168 105.831)"/><path d="M46.2854 2.57141C46.2854 1.63635 47.0451 0.876617 47.9802 0.876617 48.9152 0.876617 49.6165 1.63635 49.6165 2.57141 49.6165 3.50647 48.9152 4.20776 47.9802 4.20776 47.0451 4.20776 46.2854 3.50647 46.2854 2.57141Z" stroke="#8FAADC" stroke-width="0.50733" fill="none" transform="matrix(-1.83697e-16 -1 1.00128 -1.83933e-16 1168 105.831)"/><path d="M51.662 111.856 51.662 62.7658 67.2073 46.2854" stroke="#8FAADC" stroke-width="0.50733" fill="none" transform="matrix(-1.83697e-16 -1 1.00128 -1.83933e-16 1168 105.831)"/><path d="M66.9151 44.649C66.9151 43.4802 67.8502 42.5452 69.019 42.5452 70.1878 42.5452 71.1229 43.4802 71.1229 44.649 71.1229 45.8179 70.1878 46.7529 69.019 46.7529 67.8502 46.7529 66.9151 45.8179 66.9151 44.649Z" stroke="#8FAADC" stroke-width="0.50733" fill="none" transform="matrix(-1.83697e-16 -1 1.00128 -1.83933e-16 1168 105.831)"/><path d="M56.1619 111.856 56.1619 66.7398 63.2333 59.2593" stroke="#8FAADC" stroke-width="0.50733" fill="none" transform="matrix(-1.83697e-16 -1 1.00128 -1.83933e-16 1168 105.831)"/><path d="M62.532 58.2658C62.532 57.3308 63.2918 56.571 64.2268 56.571 65.1619 56.571 65.8632 57.3308 65.8632 58.2658 65.8632 59.2009 65.1619 59.9022 64.2268 59.9022 63.2918 59.9022 62.532 59.2009 62.532 58.2658Z" stroke="#8FAADC" stroke-width="0.50733" fill="none" transform="matrix(-1.83697e-16 -1 1.00128 -1.83933e-16 1168 105.831)"/><path d="M61.5385 111.856 61.5385 72.6423" stroke="#8FAADC" stroke-width="0.50733" fill="none" transform="matrix(-1.83697e-16 -1 1.00128 -1.83933e-16 1168 105.831)"/><path d="M58.558 69.8956C58.558 68.3761 59.7853 67.1489 61.3632 67.1489 62.8827 67.1489 64.1099 68.3761 64.1099 69.8956 64.1099 71.4735 62.8827 72.7008 61.3632 72.7008 59.7853 72.7008 58.558 71.4735 58.558 69.8956Z" stroke="#8FAADC" stroke-width="0.50733" fill="none" transform="matrix(-1.83697e-16 -1 1.00128 -1.83933e-16 1168 105.831)"/><path d="M101.454 50.3763C101.454 49.4412 102.214 48.6815 103.149 48.6815 104.084 48.6815 104.785 49.4412 104.785 50.3763 104.785 51.3113 104.084 52.0126 103.149 52.0126 102.214 51.9542 101.454 51.2529 101.454 50.3763Z" stroke="#8FAADC" stroke-width="0.50733" fill="none" transform="matrix(-1.83697e-16 -1 1.00128 -1.83933e-16 1168 105.831)"/><path d="M64.9865 111.856 64.9865 104.201 103.382 65.8047 103.382 52.4217" stroke="#8FAADC" stroke-width="0.50733" fill="none" transform="matrix(-1.83697e-16 -1 1.00128 -1.83933e-16 1168 105.831)"/><path d="M82.8695 111.681 82.8695 99.4668" stroke="#8FAADC" stroke-width="0.50733" fill="none" transform="matrix(-1.83697e-16 -1 1.00128 -1.83933e-16 1168 105.831)"/><path d="M81.1747 97.363C81.1747 96.4279 81.9345 95.6682 82.8695 95.6682 83.8046 95.6682 84.5059 96.4279 84.5059 97.363 84.5059 98.298 83.8046 98.9993 82.8695 98.9993 81.9345 98.9993 81.1747 98.298 81.1747 97.363Z" stroke="#8FAADC" stroke-width="0.50733" fill="none" transform="matrix(-1.83697e-16 -1 1.00128 -1.83933e-16 1168 105.831)"/><path d="M85.3241 83.6877 85.3825 75.4475 97.0707 63.7593 97.0707 56.8048" stroke="#8FAADC" stroke-width="0.50733" fill="none" transform="matrix(-1.83697e-16 -1 1.00128 -1.83933e-16 1168 105.831)"/><path d="M95.3759 54.8762C95.3759 53.9412 96.1357 53.1814 97.0707 53.1814 98.0058 53.1814 98.7071 53.9412 98.7071 54.8762 98.7071 55.8113 98.0058 56.5126 97.0707 56.5126 96.1357 56.5126 95.3759 55.8113 95.3759 54.8762Z" stroke="#8FAADC" stroke-width="0.50733" fill="none" transform="matrix(-1.83697e-16 -1 1.00128 -1.83933e-16 1168 105.831)"/><path d="M24.1946 111.623 24.1946 69.3112 14.6687 59.7853" stroke="#8FAADC" stroke-width="0.50733" fill="none" transform="matrix(-1.83697e-16 -1 1.00128 -1.83933e-16 1168 105.831)"/><path d="M10.5194 57.8567C10.5194 56.5126 11.5713 55.4606 12.9155 55.4606 14.2012 55.4606 15.3116 56.5126 15.3116 57.8567 15.3116 59.1424 14.2012 60.1944 12.9155 60.1944 11.5713 60.1944 10.5194 59.1424 10.5194 57.8567Z" stroke="#8FAADC" stroke-width="0.50733" fill="none" transform="matrix(-1.83697e-16 -1 1.00128 -1.83933e-16 1168 105.831)"/><path d="M21.6232 111.623 21.6232 89.2396 2.57141 70.1294 2.57141 58.4996" stroke="#8FAADC" stroke-width="0.50733" fill="none" transform="matrix(-1.83697e-16 -1 1.00128 -1.83933e-16 1168 105.831)"/><path d="M0.876617 56.9801C0.876617 56.0451 1.63635 55.2853 2.57141 55.2853 3.50647 55.2853 4.20776 56.0451 4.20776 56.9801 4.20776 57.9152 3.50647 58.6165 2.57141 58.6165 1.63635 58.6165 0.876617 57.9152 0.876617 56.9801Z" stroke="#8FAADC" stroke-width="0.50733" fill="none" transform="matrix(-1.83697e-16 -1 1.00128 -1.83933e-16 1168 105.831)"/></g></g></g><g clip-path="url(#clip4)"><g clip-path="url(#clip5)"><g clip-path="url(#clip6)"><path d="M26.9998 111.856 26.9998 79.5968 33.0192 73.4605" stroke="#8FAADC" stroke-width="0.50733" fill="none" transform="matrix(-1.83697e-16 -1 1.00128 -1.83933e-16 1168 105.831)"/><path d="M32.6102 72.2917C32.6102 71.3566 33.3699 70.5969 34.305 70.5969 35.24 70.5969 35.9413 71.3566 35.9413 72.2917 35.9413 73.2268 35.24 73.928 34.305 73.928 33.3699 73.928 32.6102 73.2268 32.6102 72.2917Z" stroke="#8FAADC" stroke-width="0.50733" fill="none" transform="matrix(-1.83697e-16 -1 1.00128 -1.83933e-16 1168 105.831)"/><path d="M29.6881 111.798 29.6881 83.1618 38.9802 73.4021 39.1556 53.8243" stroke="#8FAADC" stroke-width="0.50733" fill="none" transform="matrix(-1.83697e-16 -1 1.00128 -1.83933e-16 1168 105.831)"/><path d="M36.7595 51.8373C36.7595 50.4931 37.8114 49.4412 39.1556 49.4412 40.4413 49.4412 41.5517 50.4931 41.5517 51.8373 41.5517 53.123 40.4413 54.1749 39.1556 54.1749 37.8114 54.1749 36.7595 53.123 36.7595 51.8373Z" stroke="#8FAADC" stroke-width="0.50733" fill="none" transform="matrix(-1.83697e-16 -1 1.00128 -1.83933e-16 1168 105.831)"/><path d="M33.0777 111.856 33.0777 89.7072 44.8244 77.5514 44.8828 52.0126 33.1361 39.8569 33.1361 19.87" stroke="#8FAADC" stroke-width="0.50733" fill="none" transform="matrix(-1.83697e-16 -1 1.00128 -1.83933e-16 1168 105.831)"/><path d="M31.3829 18.4674C31.3829 17.5323 32.1426 16.7726 33.0777 16.7726 34.0127 16.7726 34.714 17.5323 34.714 18.4674 34.714 19.4025 34.0127 20.1038 33.0777 20.1038 32.1426 20.1038 31.3829 19.4025 31.3829 18.4674Z" stroke="#8FAADC" stroke-width="0.50733" fill="none" transform="matrix(-1.83697e-16 -1 1.00128 -1.83933e-16 1168 105.831)"/><path d="M39.6231 111.856 39.3893 94.2071 47.7464 85.4994 47.9802 4.20776" stroke="#8FAADC" stroke-width="0.50733" fill="none" transform="matrix(-1.83697e-16 -1 1.00128 -1.83933e-16 1168 105.831)"/><path d="M50.5516 20.8635C50.5516 19.9284 51.3113 19.1687 52.2464 19.1687 53.1814 19.1687 53.8827 19.9284 53.8827 20.8635 53.8827 21.7985 53.1814 22.4998 52.2464 22.4998 51.3113 22.4998 50.5516 21.7985 50.5516 20.8635Z" stroke="#8FAADC" stroke-width="0.50733" fill="none" transform="matrix(-1.83697e-16 -1 1.00128 -1.83933e-16 1168 105.831)"/><path d="M48.0971 55.3438 52.3048 51.1944 52.3048 22.1492" stroke="#8FAADC" stroke-width="0.50733" fill="none" transform="matrix(-1.83697e-16 -1 1.00128 -1.83933e-16 1168 105.831)"/><path d="M46.2854 2.57141C46.2854 1.63635 47.0451 0.876617 47.9802 0.876617 48.9152 0.876617 49.6165 1.63635 49.6165 2.57141 49.6165 3.50647 48.9152 4.20776 47.9802 4.20776 47.0451 4.20776 46.2854 3.50647 46.2854 2.57141Z" stroke="#8FAADC" stroke-width="0.50733" fill="none" transform="matrix(-1.83697e-16 -1 1.00128 -1.83933e-16 1168 105.831)"/><path d="M51.662 111.856 51.662 62.7658 67.2073 46.2854" stroke="#8FAADC" stroke-width="0.50733" fill="none" transform="matrix(-1.83697e-16 -1 1.00128 -1.83933e-16 1168 105.831)"/><path d="M66.9151 44.649C66.9151 43.4802 67.8502 42.5452 69.019 42.5452 70.1878 42.5452 71.1229 43.4802 71.1229 44.649 71.1229 45.8179 70.1878 46.7529 69.019 46.7529 67.8502 46.7529 66.9151 45.8179 66.9151 44.649Z" stroke="#8FAADC" stroke-width="0.50733" fill="none" transform="matrix(-1.83697e-16 -1 1.00128 -1.83933e-16 1168 105.831)"/><path d="M56.1619 111.856 56.1619 66.7398 63.2333 59.2593" stroke="#8FAADC" stroke-width="0.50733" fill="none" transform="matrix(-1.83697e-16 -1 1.00128 -1.83933e-16 1168 105.831)"/><path d="M62.532 58.2658C62.532 57.3308 63.2918 56.571 64.2268 56.571 65.1619 56.571 65.8632 57.3308 65.8632 58.2658 65.8632 59.2009 65.1619 59.9022 64.2268 59.9022 63.2918 59.9022 62.532 59.2009 62.532 58.2658Z" stroke="#8FAADC" stroke-width="0.50733" fill="none" transform="matrix(-1.83697e-16 -1 1.00128 -1.83933e-16 1168 105.831)"/><path d="M61.5385 111.856 61.5385 72.6423" stroke="#8FAADC" stroke-width="0.50733" fill="none" transform="matrix(-1.83697e-16 -1 1.00128 -1.83933e-16 1168 105.831)"/><path d="M58.558 69.8956C58.558 68.3761 59.7853 67.1489 61.3632 67.1489 62.8827 67.1489 64.1099 68.3761 64.1099 69.8956 64.1099 71.4735 62.8827 72.7008 61.3632 72.7008 59.7853 72.7008 58.558 71.4735 58.558 69.8956Z" stroke="#8FAADC" stroke-width="0.50733" fill="none" transform="matrix(-1.83697e-16 -1 1.00128 -1.83933e-16 1168 105.831)"/><path d="M101.454 50.3763C101.454 49.4412 102.214 48.6815 103.149 48.6815 104.084 48.6815 104.785 49.4412 104.785 50.3763 104.785 51.3113 104.084 52.0126 103.149 52.0126 102.214 51.9542 101.454 51.2529 101.454 50.3763Z" stroke="#8FAADC" stroke-width="0.50733" fill="none" transform="matrix(-1.83697e-16 -1 1.00128 -1.83933e-16 1168 105.831)"/><path d="M64.9865 111.856 64.9865 104.201 103.382 65.8047 103.382 52.4217" stroke="#8FAADC" stroke-width="0.50733" fill="none" transform="matrix(-1.83697e-16 -1 1.00128 -1.83933e-16 1168 105.831)"/><path d="M82.8695 111.681 82.8695 99.4668" stroke="#8FAADC" stroke-width="0.50733" fill="none" transform="matrix(-1.83697e-16 -1 1.00128 -1.83933e-16 1168 105.831)"/><path d="M81.1747 97.363C81.1747 96.4279 81.9345 95.6682 82.8695 95.6682 83.8046 95.6682 84.5059 96.4279 84.5059 97.363 84.5059 98.298 83.8046 98.9993 82.8695 98.9993 81.9345 98.9993 81.1747 98.298 81.1747 97.363Z" stroke="#8FAADC" stroke-width="0.50733" fill="none" transform="matrix(-1.83697e-16 -1 1.00128 -1.83933e-16 1168 105.831)"/><path d="M85.3241 83.6877 85.3825 75.4475 97.0707 63.7593 97.0707 56.8048" stroke="#8FAADC" stroke-width="0.50733" fill="none" transform="matrix(-1.83697e-16 -1 1.00128 -1.83933e-16 1168 105.831)"/><path d="M95.3759 54.8762C95.3759 53.9412 96.1357 53.1814 97.0707 53.1814 98.0058 53.1814 98.7071 53.9412 98.7071 54.8762 98.7071 55.8113 98.0058 56.5126 97.0707 56.5126 96.1357 56.5126 95.3759 55.8113 95.3759 54.8762Z" stroke="#8FAADC" stroke-width="0.50733" fill="none" transform="matrix(-1.83697e-16 -1 1.00128 -1.83933e-16 1168 105.831)"/><path d="M24.1946 111.623 24.1946 69.3112 14.6687 59.7853" stroke="#8FAADC" stroke-width="0.50733" fill="none" transform="matrix(-1.83697e-16 -1 1.00128 -1.83933e-16 1168 105.831)"/><path d="M10.5194 57.8567C10.5194 56.5126 11.5713 55.4606 12.9155 55.4606 14.2012 55.4606 15.3116 56.5126 15.3116 57.8567 15.3116 59.1424 14.2012 60.1944 12.9155 60.1944 11.5713 60.1944 10.5194 59.1424 10.5194 57.8567Z" stroke="#8FAADC" stroke-width="0.50733" fill="none" transform="matrix(-1.83697e-16 -1 1.00128 -1.83933e-16 1168 105.831)"/><path d="M21.6232 111.623 21.6232 89.2396 2.57141 70.1294 2.57141 58.4996" stroke="#8FAADC" stroke-width="0.50733" fill="none" transform="matrix(-1.83697e-16 -1 1.00128 -1.83933e-16 1168 105.831)"/><path d="M0.876617 56.9801C0.876617 56.0451 1.63635 55.2853 2.57141 55.2853 3.50647 55.2853 4.20776 56.0451 4.20776 56.9801 4.20776 57.9152 3.50647 58.6165 2.57141 58.6165 1.63635 58.6165 0.876617 57.9152 0.876617 56.9801Z" stroke="#8FAADC" stroke-width="0.50733" fill="none" transform="matrix(-1.83697e-16 -1 1.00128 -1.83933e-16 1168 105.831)"/></g></g></g><text fill="#858B8E" font-family="Arial,Arial_MSFontService,sans-serif" font-weight="400" font-size="14" transform="translate(67.6459 702)">©<tspan font-family="DengXian,DengXian_MSFontService,sans-serif" font-size="14" x="12.7533" y="0">蒋永泺</tspan></text></g></svg>